<mxfile host="app.diagrams.net" modified="2020-04-27T21:24:53.820Z" agent="5.0 (Macintosh; Intel Mac OS X 10_13_6) AppleWebKit/537.36 (KHTML, like Gecko) Chrome/81.0.4044.122 Safari/537.36" etag="3at9W5HiBr8d1UsF-0CO" version="13.0.2" type="github">
  <diagram name="Page-1" id="5f0bae14-7c28-e335-631c-24af17079c00">
    <mxGraphModel dx="859" dy="526" grid="1" gridSize="10" guides="1" tooltips="1" connect="1" arrows="1" fold="1" page="1" pageScale="1" pageWidth="1169" pageHeight="827" background="#ffffff" math="0" shadow="0">
      <root>
        <mxCell id="0" />
        <mxCell id="1" parent="0" />
        <mxCell id="VSYmshUo5lvBwlWYzg5F-6" value="GMS" style="rounded=0;whiteSpace=wrap;html=1;verticalAlign=top;align=center;dashed=1;" vertex="1" parent="1">
          <mxGeometry x="240" y="160" width="640" height="400" as="geometry" />
        </mxCell>
        <mxCell id="VSYmshUo5lvBwlWYzg5F-70" value="" style="rounded=0;whiteSpace=wrap;html=1;dashed=1;align=center;" vertex="1" parent="1">
          <mxGeometry x="340" y="185" width="120" height="165" as="geometry" />
        </mxCell>
        <mxCell id="VSYmshUo5lvBwlWYzg5F-1" value="Registry DB" style="shape=cylinder;whiteSpace=wrap;html=1;boundedLbl=1;backgroundOutline=1;" vertex="1" parent="1">
          <mxGeometry x="472.5" y="190" width="55" height="60" as="geometry" />
        </mxCell>
        <mxCell id="VSYmshUo5lvBwlWYzg5F-2" value="Website" style="rounded=0;whiteSpace=wrap;html=1;" vertex="1" parent="1">
          <mxGeometry x="380" y="700" width="125" height="60" as="geometry" />
        </mxCell>
        <mxCell id="VSYmshUo5lvBwlWYzg5F-69" style="edgeStyle=none;rounded=1;comic=0;orthogonalLoop=1;jettySize=auto;html=1;entryX=0;entryY=0.5;entryDx=0;entryDy=0;shadow=0;startArrow=none;startFill=0;endArrow=classic;endFill=1;" edge="1" parent="1" source="VSYmshUo5lvBwlWYzg5F-3" target="VSYmshUo5lvBwlWYzg5F-65">
          <mxGeometry relative="1" as="geometry" />
        </mxCell>
        <mxCell id="VSYmshUo5lvBwlWYzg5F-3" value="User" style="shape=umlActor;verticalLabelPosition=bottom;labelBackgroundColor=#ffffff;verticalAlign=top;html=1;outlineConnect=0;" vertex="1" parent="1">
          <mxGeometry x="30" y="250" width="30" height="60" as="geometry" />
        </mxCell>
        <mxCell id="VSYmshUo5lvBwlWYzg5F-4" value="Customer" style="shape=umlActor;verticalLabelPosition=bottom;labelBackgroundColor=#ffffff;verticalAlign=top;html=1;outlineConnect=0;" vertex="1" parent="1">
          <mxGeometry x="150" y="700" width="30" height="60" as="geometry" />
        </mxCell>
        <mxCell id="VSYmshUo5lvBwlWYzg5F-5" value="ZIP DB" style="shape=cylinder;whiteSpace=wrap;html=1;boundedLbl=1;backgroundOutline=1;" vertex="1" parent="1">
          <mxGeometry x="400" y="195" width="50" height="50" as="geometry" />
        </mxCell>
        <mxCell id="VSYmshUo5lvBwlWYzg5F-7" value="" style="endArrow=classic;html=1;entryX=0;entryY=0.5;entryDx=0;entryDy=0;" edge="1" parent="1" source="VSYmshUo5lvBwlWYzg5F-4" target="VSYmshUo5lvBwlWYzg5F-2">
          <mxGeometry width="50" height="50" relative="1" as="geometry">
            <mxPoint x="210" y="560" as="sourcePoint" />
            <mxPoint x="300" y="510" as="targetPoint" />
          </mxGeometry>
        </mxCell>
        <mxCell id="VSYmshUo5lvBwlWYzg5F-11" value="" style="endArrow=classic;startArrow=classic;html=1;entryX=0.5;entryY=1;entryDx=0;entryDy=0;" edge="1" parent="1" source="VSYmshUo5lvBwlWYzg5F-32" target="VSYmshUo5lvBwlWYzg5F-1">
          <mxGeometry width="50" height="50" relative="1" as="geometry">
            <mxPoint x="490" y="400" as="sourcePoint" />
            <mxPoint x="590" y="230" as="targetPoint" />
          </mxGeometry>
        </mxCell>
        <mxCell id="VSYmshUo5lvBwlWYzg5F-14" value="SMTP Server" style="shape=cube;whiteSpace=wrap;html=1;boundedLbl=1;backgroundOutline=1;darkOpacity=0.05;darkOpacity2=0.1;" vertex="1" parent="1">
          <mxGeometry x="700" y="10" width="120" height="80" as="geometry" />
        </mxCell>
        <mxCell id="VSYmshUo5lvBwlWYzg5F-19" value="" style="endArrow=classic;html=1;shadow=0;exitX=0.5;exitY=0;exitDx=0;exitDy=0;entryX=0.422;entryY=1.027;entryDx=0;entryDy=0;startArrow=classic;startFill=1;entryPerimeter=0;" edge="1" parent="1" source="VSYmshUo5lvBwlWYzg5F-2" target="VSYmshUo5lvBwlWYzg5F-6">
          <mxGeometry width="50" height="50" relative="1" as="geometry">
            <mxPoint x="490" y="350" as="sourcePoint" />
            <mxPoint x="540" y="300" as="targetPoint" />
          </mxGeometry>
        </mxCell>
        <mxCell id="VSYmshUo5lvBwlWYzg5F-25" value="ZIP API" style="shape=cube;whiteSpace=wrap;html=1;boundedLbl=1;backgroundOutline=1;darkOpacity=0.05;darkOpacity2=0.1;" vertex="1" parent="1">
          <mxGeometry x="320" y="10" width="120" height="80" as="geometry" />
        </mxCell>
        <mxCell id="VSYmshUo5lvBwlWYzg5F-26" value="" style="endArrow=classic;html=1;shadow=0;entryX=0.25;entryY=0;entryDx=0;entryDy=0;" edge="1" parent="1" target="VSYmshUo5lvBwlWYzg5F-70">
          <mxGeometry width="50" height="50" relative="1" as="geometry">
            <mxPoint x="390" y="90" as="sourcePoint" />
            <mxPoint x="440" y="110" as="targetPoint" />
          </mxGeometry>
        </mxCell>
        <mxCell id="VSYmshUo5lvBwlWYzg5F-27" value="ZIP MS" style="rounded=0;whiteSpace=wrap;html=1;align=center;" vertex="1" parent="1">
          <mxGeometry x="360" y="300" width="67.5" height="30" as="geometry" />
        </mxCell>
        <mxCell id="VSYmshUo5lvBwlWYzg5F-28" value="" style="endArrow=classic;startArrow=classic;html=1;shadow=0;" edge="1" parent="1" source="VSYmshUo5lvBwlWYzg5F-27" target="VSYmshUo5lvBwlWYzg5F-5">
          <mxGeometry width="50" height="50" relative="1" as="geometry">
            <mxPoint x="500" y="240" as="sourcePoint" />
            <mxPoint x="435" y="210" as="targetPoint" />
          </mxGeometry>
        </mxCell>
        <mxCell id="VSYmshUo5lvBwlWYzg5F-29" value="PDF MS" style="rounded=0;whiteSpace=wrap;html=1;align=center;" vertex="1" parent="1">
          <mxGeometry x="545" y="511.5" width="60" height="30" as="geometry" />
        </mxCell>
        <mxCell id="VSYmshUo5lvBwlWYzg5F-40" style="edgeStyle=orthogonalEdgeStyle;rounded=1;comic=0;orthogonalLoop=1;jettySize=auto;html=1;exitX=1;exitY=0.5;exitDx=0;exitDy=0;entryX=0;entryY=0.5;entryDx=0;entryDy=0;shadow=0;startArrow=classic;startFill=1;endArrow=classic;endFill=1;" edge="1" parent="1" source="VSYmshUo5lvBwlWYzg5F-32" target="VSYmshUo5lvBwlWYzg5F-37">
          <mxGeometry relative="1" as="geometry" />
        </mxCell>
        <mxCell id="VSYmshUo5lvBwlWYzg5F-32" value="Registry MS" style="rounded=0;whiteSpace=wrap;html=1;align=center;" vertex="1" parent="1">
          <mxGeometry x="460" y="300" width="80" height="30" as="geometry" />
        </mxCell>
        <mxCell id="VSYmshUo5lvBwlWYzg5F-35" value="" style="endArrow=classic;startArrow=classic;html=1;shadow=0;entryX=1;entryY=0.5;entryDx=0;entryDy=0;exitX=0;exitY=0.5;exitDx=0;exitDy=0;" edge="1" parent="1" source="VSYmshUo5lvBwlWYzg5F-32" target="VSYmshUo5lvBwlWYzg5F-27">
          <mxGeometry width="50" height="50" relative="1" as="geometry">
            <mxPoint x="500" y="280" as="sourcePoint" />
            <mxPoint x="550" y="230" as="targetPoint" />
          </mxGeometry>
        </mxCell>
        <mxCell id="VSYmshUo5lvBwlWYzg5F-72" style="edgeStyle=none;rounded=1;comic=0;orthogonalLoop=1;jettySize=auto;html=1;exitX=0.5;exitY=1;exitDx=0;exitDy=0;entryX=0.75;entryY=0;entryDx=0;entryDy=0;shadow=0;startArrow=none;startFill=0;endArrow=classic;endFill=1;" edge="1" parent="1" source="VSYmshUo5lvBwlWYzg5F-37" target="VSYmshUo5lvBwlWYzg5F-45">
          <mxGeometry relative="1" as="geometry" />
        </mxCell>
        <mxCell id="VSYmshUo5lvBwlWYzg5F-75" style="edgeStyle=none;rounded=1;comic=0;orthogonalLoop=1;jettySize=auto;html=1;exitX=0.75;exitY=1;exitDx=0;exitDy=0;entryX=0.25;entryY=0;entryDx=0;entryDy=0;shadow=0;startArrow=classic;startFill=1;endArrow=classic;endFill=1;" edge="1" parent="1" source="VSYmshUo5lvBwlWYzg5F-37" target="VSYmshUo5lvBwlWYzg5F-48">
          <mxGeometry relative="1" as="geometry" />
        </mxCell>
        <mxCell id="VSYmshUo5lvBwlWYzg5F-76" style="edgeStyle=none;rounded=1;comic=0;orthogonalLoop=1;jettySize=auto;html=1;exitX=0.25;exitY=1;exitDx=0;exitDy=0;entryX=1;entryY=0.5;entryDx=0;entryDy=0;shadow=0;startArrow=classic;startFill=1;endArrow=classic;endFill=1;" edge="1" parent="1" source="VSYmshUo5lvBwlWYzg5F-37" target="VSYmshUo5lvBwlWYzg5F-59">
          <mxGeometry relative="1" as="geometry" />
        </mxCell>
        <mxCell id="VSYmshUo5lvBwlWYzg5F-37" value="Subscr MS" style="rounded=0;whiteSpace=wrap;html=1;align=center;" vertex="1" parent="1">
          <mxGeometry x="570" y="300" width="80" height="30" as="geometry" />
        </mxCell>
        <mxCell id="VSYmshUo5lvBwlWYzg5F-38" value="Subscr DB" style="shape=cylinder;whiteSpace=wrap;html=1;boundedLbl=1;backgroundOutline=1;" vertex="1" parent="1">
          <mxGeometry x="582.5" y="190" width="55" height="60" as="geometry" />
        </mxCell>
        <mxCell id="VSYmshUo5lvBwlWYzg5F-39" value="" style="endArrow=classic;startArrow=classic;html=1;entryX=0.5;entryY=1;entryDx=0;entryDy=0;" edge="1" source="VSYmshUo5lvBwlWYzg5F-37" target="VSYmshUo5lvBwlWYzg5F-38" parent="1">
          <mxGeometry width="50" height="50" relative="1" as="geometry">
            <mxPoint x="600" y="400" as="sourcePoint" />
            <mxPoint x="700" y="230" as="targetPoint" />
          </mxGeometry>
        </mxCell>
        <mxCell id="VSYmshUo5lvBwlWYzg5F-51" style="rounded=1;comic=0;orthogonalLoop=1;jettySize=auto;html=1;exitX=0.645;exitY=1.055;exitDx=0;exitDy=0;entryX=0;entryY=0;entryDx=0;entryDy=0;shadow=0;startArrow=none;startFill=0;endArrow=classic;endFill=1;exitPerimeter=0;" edge="1" parent="1" source="VSYmshUo5lvBwlWYzg5F-32" target="VSYmshUo5lvBwlWYzg5F-48">
          <mxGeometry relative="1" as="geometry" />
        </mxCell>
        <mxCell id="VSYmshUo5lvBwlWYzg5F-43" value="" style="endArrow=classic;startArrow=classic;html=1;entryX=0.5;entryY=1;entryDx=0;entryDy=0;" edge="1" parent="1" source="VSYmshUo5lvBwlWYzg5F-41">
          <mxGeometry width="50" height="50" relative="1" as="geometry">
            <mxPoint x="710" y="400" as="sourcePoint" />
            <mxPoint x="719.9999999999998" y="250" as="targetPoint" />
          </mxGeometry>
        </mxCell>
        <mxCell id="VSYmshUo5lvBwlWYzg5F-46" style="edgeStyle=orthogonalEdgeStyle;rounded=1;comic=0;orthogonalLoop=1;jettySize=auto;html=1;entryX=0.5;entryY=1;entryDx=0;entryDy=0;shadow=0;startArrow=classic;startFill=1;endArrow=none;endFill=0;" edge="1" parent="1" source="VSYmshUo5lvBwlWYzg5F-45" target="VSYmshUo5lvBwlWYzg5F-32">
          <mxGeometry relative="1" as="geometry" />
        </mxCell>
        <mxCell id="VSYmshUo5lvBwlWYzg5F-47" style="edgeStyle=orthogonalEdgeStyle;rounded=1;comic=0;orthogonalLoop=1;jettySize=auto;html=1;exitX=0.5;exitY=1;exitDx=0;exitDy=0;entryX=0.5;entryY=0;entryDx=0;entryDy=0;shadow=0;startArrow=none;startFill=0;endArrow=classic;endFill=1;" edge="1" parent="1" source="VSYmshUo5lvBwlWYzg5F-45" target="VSYmshUo5lvBwlWYzg5F-29">
          <mxGeometry relative="1" as="geometry" />
        </mxCell>
        <mxCell id="VSYmshUo5lvBwlWYzg5F-58" style="edgeStyle=none;rounded=1;comic=0;orthogonalLoop=1;jettySize=auto;html=1;entryX=1;entryY=0.5;entryDx=0;entryDy=0;shadow=0;startArrow=classic;startFill=1;endArrow=classic;endFill=1;" edge="1" parent="1" source="VSYmshUo5lvBwlWYzg5F-45" target="VSYmshUo5lvBwlWYzg5F-57">
          <mxGeometry relative="1" as="geometry" />
        </mxCell>
        <mxCell id="VSYmshUo5lvBwlWYzg5F-74" style="edgeStyle=none;rounded=1;comic=0;orthogonalLoop=1;jettySize=auto;html=1;exitX=1;exitY=0.5;exitDx=0;exitDy=0;entryX=0;entryY=0.75;entryDx=0;entryDy=0;shadow=0;startArrow=classic;startFill=1;endArrow=classic;endFill=1;" edge="1" parent="1" source="VSYmshUo5lvBwlWYzg5F-45" target="VSYmshUo5lvBwlWYzg5F-48">
          <mxGeometry relative="1" as="geometry" />
        </mxCell>
        <mxCell id="VSYmshUo5lvBwlWYzg5F-45" value="Reports MS" style="rounded=0;whiteSpace=wrap;html=1;align=center;" vertex="1" parent="1">
          <mxGeometry x="537.5" y="435" width="75" height="30" as="geometry" />
        </mxCell>
        <mxCell id="VSYmshUo5lvBwlWYzg5F-50" style="edgeStyle=orthogonalEdgeStyle;rounded=1;comic=0;orthogonalLoop=1;jettySize=auto;html=1;exitX=1;exitY=0.5;exitDx=0;exitDy=0;entryX=0.851;entryY=0.991;entryDx=0;entryDy=0;entryPerimeter=0;shadow=0;startArrow=none;startFill=0;endArrow=classic;endFill=1;" edge="1" parent="1" source="VSYmshUo5lvBwlWYzg5F-48" target="VSYmshUo5lvBwlWYzg5F-14">
          <mxGeometry relative="1" as="geometry" />
        </mxCell>
        <mxCell id="VSYmshUo5lvBwlWYzg5F-56" style="edgeStyle=none;rounded=1;comic=0;orthogonalLoop=1;jettySize=auto;html=1;exitX=0.5;exitY=1;exitDx=0;exitDy=0;entryX=0.5;entryY=0;entryDx=0;entryDy=0;shadow=0;startArrow=classic;startFill=1;endArrow=classic;endFill=1;" edge="1" parent="1" source="VSYmshUo5lvBwlWYzg5F-48" target="VSYmshUo5lvBwlWYzg5F-55">
          <mxGeometry relative="1" as="geometry" />
        </mxCell>
        <mxCell id="VSYmshUo5lvBwlWYzg5F-48" value="Mailing MS" style="rounded=0;whiteSpace=wrap;html=1;align=center;" vertex="1" parent="1">
          <mxGeometry x="680" y="370" width="75" height="30" as="geometry" />
        </mxCell>
        <mxCell id="VSYmshUo5lvBwlWYzg5F-55" value="Mailing DB" style="shape=cylinder;whiteSpace=wrap;html=1;boundedLbl=1;backgroundOutline=1;" vertex="1" parent="1">
          <mxGeometry x="690" y="430" width="55" height="60" as="geometry" />
        </mxCell>
        <mxCell id="VSYmshUo5lvBwlWYzg5F-57" value="Reports DB" style="shape=cylinder;whiteSpace=wrap;html=1;boundedLbl=1;backgroundOutline=1;" vertex="1" parent="1">
          <mxGeometry x="440" y="420" width="55" height="60" as="geometry" />
        </mxCell>
        <mxCell id="VSYmshUo5lvBwlWYzg5F-62" style="edgeStyle=none;rounded=1;comic=0;orthogonalLoop=1;jettySize=auto;html=1;exitX=1;exitY=0;exitDx=0;exitDy=0;entryX=0;entryY=0.75;entryDx=0;entryDy=0;shadow=0;startArrow=classic;startFill=1;endArrow=none;endFill=0;" edge="1" parent="1" source="VSYmshUo5lvBwlWYzg5F-59" target="VSYmshUo5lvBwlWYzg5F-32">
          <mxGeometry relative="1" as="geometry" />
        </mxCell>
        <mxCell id="VSYmshUo5lvBwlWYzg5F-73" style="edgeStyle=none;rounded=1;comic=0;orthogonalLoop=1;jettySize=auto;html=1;exitX=1;exitY=0.5;exitDx=0;exitDy=0;entryX=0.25;entryY=0;entryDx=0;entryDy=0;shadow=0;startArrow=none;startFill=0;endArrow=classic;endFill=1;" edge="1" parent="1" source="VSYmshUo5lvBwlWYzg5F-59" target="VSYmshUo5lvBwlWYzg5F-45">
          <mxGeometry relative="1" as="geometry" />
        </mxCell>
        <mxCell id="VSYmshUo5lvBwlWYzg5F-59" value="Finance MS" style="rounded=0;whiteSpace=wrap;html=1;align=center;" vertex="1" parent="1">
          <mxGeometry x="280" y="370" width="80" height="30" as="geometry" />
        </mxCell>
        <mxCell id="VSYmshUo5lvBwlWYzg5F-61" style="edgeStyle=none;rounded=1;comic=0;orthogonalLoop=1;jettySize=auto;html=1;entryX=0.5;entryY=1;entryDx=0;entryDy=0;shadow=0;startArrow=classic;startFill=1;endArrow=classic;endFill=1;" edge="1" parent="1" source="VSYmshUo5lvBwlWYzg5F-60" target="VSYmshUo5lvBwlWYzg5F-59">
          <mxGeometry relative="1" as="geometry" />
        </mxCell>
        <mxCell id="VSYmshUo5lvBwlWYzg5F-60" value="Finance DB" style="shape=cylinder;whiteSpace=wrap;html=1;boundedLbl=1;backgroundOutline=1;" vertex="1" parent="1">
          <mxGeometry x="292.5" y="430" width="55" height="60" as="geometry" />
        </mxCell>
        <mxCell id="VSYmshUo5lvBwlWYzg5F-68" style="edgeStyle=none;rounded=1;comic=0;orthogonalLoop=1;jettySize=auto;html=1;exitX=1;exitY=0.5;exitDx=0;exitDy=0;entryX=0;entryY=0.356;entryDx=0;entryDy=0;entryPerimeter=0;shadow=0;startArrow=classic;startFill=1;endArrow=classic;endFill=1;" edge="1" parent="1" source="VSYmshUo5lvBwlWYzg5F-65" target="VSYmshUo5lvBwlWYzg5F-6">
          <mxGeometry relative="1" as="geometry" />
        </mxCell>
        <mxCell id="VSYmshUo5lvBwlWYzg5F-65" value="Browser" style="rounded=0;whiteSpace=wrap;html=1;" vertex="1" parent="1">
          <mxGeometry x="140" y="285" width="70" height="35" as="geometry" />
        </mxCell>
      </root>
    </mxGraphModel>
  </diagram>
</mxfile>
